<svg xmlns="http://www.w3.org/2000/svg" xmlns:xlink="http://www.w3.org/1999/xlink" xml:space="preserve" width="2480px" height="3508px" style="shape-rendering:geometricPrecision; text-rendering:geometricPrecision; image-rendering:optimizeQuality; fill-rule:evenodd; clip-rule:evenodd" viewBox="0 0 2480 3507.43"> <defs> <style type="text/css"> <![CDATA[ .fil1 {fill:#feb903} .fil0 {fill:#feb903;fill-rule:nonzero} ]]> </style> </defs> <g id="Слой_x0020_1"> <metadata id="CorelCorpID_0Corel-Layer"></metadata> <g id="Page-1"> <g id="Artboard-Copy"> <g id="___35_1_2_2_1"> <path id="Path" class="fil0" d="M101.74 813.67c25.25,0 45.75,-20.46 45.75,-45.71 0,-25.25 -20.5,-45.71 -45.75,-45.71 -25.27,0 -45.75,20.46 -45.75,45.71 0,25.25 20.48,45.71 45.75,45.71z"></path> <path id="Path_0" class="fil1" d="M101.74 813.67c25.25,0 45.75,-20.46 45.75,-45.71 0,-25.25 -20.5,-45.71 -45.75,-45.71 -25.27,0 -45.75,20.46 -45.75,45.71 0,25.25 20.48,45.71 45.75,45.71z"></path> <path id="Path_1" class="fil0" d="M663.49 813.67c25.28,0 45.75,-20.46 45.75,-45.71 0,-25.25 -20.47,-45.71 -45.75,-45.71 -25.25,0 -45.74,20.46 -45.74,45.71 0,25.25 20.49,45.71 45.74,45.71z"></path> <path id="Path_2" class="fil1" d="M663.49 813.67c25.28,0 45.75,-20.46 45.75,-45.71 0,-25.25 -20.47,-45.71 -45.75,-45.71 -25.25,0 -45.74,20.46 -45.74,45.71 0,25.25 20.49,45.71 45.74,45.71z"></path> <path id="Path_3" class="fil0" d="M1225.43 813.67c25.27,0 45.75,-20.46 45.75,-45.71 0,-25.25 -20.48,-45.71 -45.75,-45.71 -25.27,0 -45.75,20.46 -45.75,45.71 0,25.25 20.48,45.71 45.75,45.71z"></path> <path id="Path_4" class="fil1" d="M1225.43 813.67c25.27,0 45.75,-20.46 45.75,-45.71 0,-25.25 -20.48,-45.71 -45.75,-45.71 -25.27,0 -45.75,20.46 -45.75,45.71 0,25.25 20.48,45.71 45.75,45.71z"></path> <path id="Path_5" class="fil0" d="M1787.18 813.67c25.28,0 45.76,-20.46 45.76,-45.71 0,-25.25 -20.48,-45.71 -45.76,-45.71 -25.26,0 -45.75,20.46 -45.75,45.71 0,25.25 20.49,45.71 45.75,45.71z"></path> <path id="Path_6" class="fil1" d="M1787.18 813.67c25.28,0 45.76,-20.46 45.76,-45.71 0,-25.25 -20.48,-45.71 -45.76,-45.71 -25.26,0 -45.75,20.46 -45.75,45.71 0,25.25 20.49,45.71 45.75,45.71z"></path> <path id="Path_7" class="fil0" d="M2349.48 813.67c25.25,0 45.72,-20.46 45.72,-45.71 0,-25.25 -20.47,-45.71 -45.72,-45.71 -25.28,0 -45.75,20.46 -45.75,45.71 0,25.25 20.47,45.71 45.75,45.71z"></path> <path id="Path_8" class="fil1" d="M2349.48 813.67c25.25,0 45.72,-20.46 45.72,-45.71 0,-25.25 -20.47,-45.71 -45.72,-45.71 -25.28,0 -45.75,20.46 -45.75,45.71 0,25.25 20.47,45.71 45.75,45.71z"></path> <path id="Path_9" class="fil0" d="M101.74 1306.41c25.25,0 45.75,-20.46 45.75,-45.72 0,-25.25 -20.5,-45.7 -45.75,-45.7 -25.27,0 -45.75,20.45 -45.75,45.7 0,25.26 20.48,45.72 45.75,45.72z"></path> <path id="Path_10" class="fil1" d="M101.74 1306.41c25.25,0 45.75,-20.46 45.75,-45.72 0,-25.25 -20.5,-45.7 -45.75,-45.7 -25.27,0 -45.75,20.45 -45.75,45.7 0,25.26 20.48,45.72 45.75,45.72z"></path> <path id="Path_11" class="fil0" d="M663.49 1306.37c25.28,0 45.75,-20.46 45.75,-45.71 0,-25.25 -20.47,-45.74 -45.75,-45.74 -25.25,0 -45.74,20.49 -45.74,45.74 0,25.25 20.49,45.71 45.74,45.71z"></path> <path id="Path_12" class="fil1" d="M663.49 1306.37c25.28,0 45.75,-20.46 45.75,-45.71 0,-25.25 -20.47,-45.74 -45.75,-45.74 -25.25,0 -45.74,20.49 -45.74,45.74 0,25.25 20.49,45.71 45.74,45.71z"></path> <path id="Path_13" class="fil0" d="M1225.43 1306.37c25.27,0 45.75,-20.46 45.75,-45.71 0,-25.25 -20.48,-45.74 -45.75,-45.74 -25.27,0 -45.75,20.49 -45.75,45.74 0,25.25 20.48,45.71 45.75,45.71z"></path> <path id="Path_14" class="fil1" d="M1225.43 1306.37c25.27,0 45.75,-20.46 45.75,-45.71 0,-25.25 -20.48,-45.74 -45.75,-45.74 -25.27,0 -45.75,20.49 -45.75,45.74 0,25.25 20.48,45.71 45.75,45.71z"></path> <path id="Path_15" class="fil0" d="M1787.18 1306.37c25.28,0 45.76,-20.46 45.76,-45.71 0,-25.25 -20.48,-45.74 -45.76,-45.74 -25.26,0 -45.75,20.49 -45.75,45.74 0,25.25 20.49,45.71 45.75,45.71z"></path> <path id="Path_16" class="fil1" d="M1787.18 1306.37c25.28,0 45.76,-20.46 45.76,-45.71 0,-25.25 -20.48,-45.74 -45.76,-45.74 -25.26,0 -45.75,20.49 -45.75,45.74 0,25.25 20.49,45.71 45.75,45.71z"></path> <path id="Path_17" class="fil0" d="M2349.48 1306.37c25.25,0 45.72,-20.46 45.72,-45.71 0,-25.25 -20.47,-45.74 -45.72,-45.74 -25.28,0 -45.75,20.49 -45.75,45.74 0,25.25 20.47,45.71 45.75,45.71z"></path> <path id="Path_18" class="fil1" d="M2349.48 1306.37c25.25,0 45.72,-20.46 45.72,-45.71 0,-25.25 -20.47,-45.74 -45.72,-45.74 -25.28,0 -45.75,20.49 -45.75,45.74 0,25.25 20.47,45.71 45.75,45.71z"></path> <path id="Path_19" class="fil0" d="M101.74 1798.67c25.25,0 45.75,-20.45 45.75,-45.71 0,-25.25 -20.5,-45.71 -45.75,-45.71 -25.27,0 -45.75,20.46 -45.75,45.71 0,25.26 20.48,45.71 45.75,45.71z"></path> <path id="Path_20" class="fil1" d="M101.74 1798.67c25.25,0 45.75,-20.45 45.75,-45.71 0,-25.25 -20.5,-45.71 -45.75,-45.71 -25.27,0 -45.75,20.46 -45.75,45.71 0,25.26 20.48,45.71 45.75,45.71z"></path> <path id="Path_21" class="fil0" d="M663.49 1798.67c25.28,0 45.75,-20.45 45.75,-45.71 0,-25.25 -20.47,-45.71 -45.75,-45.71 -25.25,0 -45.74,20.46 -45.74,45.71 0,25.26 20.49,45.71 45.74,45.71z"></path> <path id="Path_22" class="fil1" d="M663.49 1798.67c25.28,0 45.75,-20.45 45.75,-45.71 0,-25.25 -20.47,-45.71 -45.75,-45.71 -25.25,0 -45.74,20.46 -45.74,45.71 0,25.26 20.49,45.71 45.74,45.71z"></path> <path id="Path_23" class="fil0" d="M1225.43 1798.67c25.27,0 45.75,-20.45 45.75,-45.71 0,-25.25 -20.48,-45.71 -45.75,-45.71 -25.27,0 -45.75,20.46 -45.75,45.71 0,25.26 20.48,45.71 45.75,45.71z"></path> <path id="Path_24" class="fil1" d="M1225.43 1798.67c25.27,0 45.75,-20.45 45.75,-45.71 0,-25.25 -20.48,-45.71 -45.75,-45.71 -25.27,0 -45.75,20.46 -45.75,45.71 0,25.26 20.48,45.71 45.75,45.71z"></path> <path id="Path_25" class="fil0" d="M1787.18 1798.67c25.28,0 45.76,-20.45 45.76,-45.71 0,-25.25 -20.48,-45.71 -45.76,-45.71 -25.26,0 -45.75,20.46 -45.75,45.71 0,25.26 20.49,45.71 45.75,45.71z"></path> <path id="Path_26" class="fil1" d="M1787.18 1798.67c25.28,0 45.76,-20.45 45.76,-45.71 0,-25.25 -20.48,-45.71 -45.76,-45.71 -25.26,0 -45.75,20.46 -45.75,45.71 0,25.26 20.49,45.71 45.75,45.71z"></path> <path id="Path_27" class="fil0" d="M2349.48 1798.67c25.25,0 45.72,-20.45 45.72,-45.71 0,-25.25 -20.47,-45.71 -45.72,-45.71 -25.28,0 -45.75,20.46 -45.75,45.71 0,25.26 20.47,45.71 45.75,45.71z"></path> <path id="Path_28" class="fil1" d="M2349.48 1798.67c25.25,0 45.72,-20.45 45.72,-45.71 0,-25.25 -20.47,-45.71 -45.72,-45.71 -25.28,0 -45.75,20.46 -45.75,45.71 0,25.26 20.47,45.71 45.75,45.71z"></path> <path id="Path_29" class="fil0" d="M101.74 2291.04c25.25,0 45.75,-20.48 45.75,-45.71 0,-25.25 -20.5,-45.73 -45.75,-45.73 -25.27,0 -45.75,20.48 -45.75,45.73 0,25.23 20.48,45.71 45.75,45.71z"></path> <path id="Path_30" class="fil1" d="M101.74 2291.04c25.25,0 45.75,-20.48 45.75,-45.71 0,-25.25 -20.5,-45.73 -45.75,-45.73 -25.27,0 -45.75,20.48 -45.75,45.73 0,25.23 20.48,45.71 45.75,45.71z"></path> <path id="Path_31" class="fil0" d="M663.49 2291c25.28,0 45.75,-20.48 45.75,-45.73 0,-25.26 -20.47,-45.71 -45.75,-45.71 -25.25,0 -45.74,20.45 -45.74,45.71 0,25.25 20.49,45.73 45.74,45.73z"></path> <path id="Path_32" class="fil1" d="M663.49 2291c25.28,0 45.75,-20.48 45.75,-45.73 0,-25.26 -20.47,-45.71 -45.75,-45.71 -25.25,0 -45.74,20.45 -45.74,45.71 0,25.25 20.49,45.73 45.74,45.73z"></path> <path id="Path_33" class="fil0" d="M1225.43 2291c25.27,0 45.75,-20.48 45.75,-45.73 0,-25.26 -20.48,-45.71 -45.75,-45.71 -25.27,0 -45.75,20.45 -45.75,45.71 0,25.25 20.48,45.73 45.75,45.73z"></path> <path id="Path_34" class="fil1" d="M1225.43 2291c25.27,0 45.75,-20.48 45.75,-45.73 0,-25.26 -20.48,-45.71 -45.75,-45.71 -25.27,0 -45.75,20.45 -45.75,45.71 0,25.25 20.48,45.73 45.75,45.73z"></path> <path id="Path_35" class="fil0" d="M1787.18 2291c25.28,0 45.76,-20.48 45.76,-45.73 0,-25.26 -20.48,-45.71 -45.76,-45.71 -25.26,0 -45.75,20.45 -45.75,45.71 0,25.25 20.49,45.73 45.75,45.73z"></path> <path id="Path_36" class="fil1" d="M1787.18 2291c25.28,0 45.76,-20.48 45.76,-45.73 0,-25.26 -20.48,-45.71 -45.76,-45.71 -25.26,0 -45.75,20.45 -45.75,45.71 0,25.25 20.49,45.73 45.75,45.73z"></path> <path id="Path_37" class="fil0" d="M2349.48 2291c25.25,0 45.72,-20.48 45.72,-45.73 0,-25.26 -20.47,-45.71 -45.72,-45.71 -25.28,0 -45.75,20.45 -45.75,45.71 0,25.25 20.47,45.73 45.75,45.73z"></path> <path id="Path_38" class="fil1" d="M2349.48 2291c25.25,0 45.72,-20.48 45.72,-45.73 0,-25.26 -20.47,-45.71 -45.72,-45.71 -25.28,0 -45.75,20.45 -45.75,45.71 0,25.25 20.47,45.73 45.75,45.73z"></path> <path id="Path_39" class="fil0" d="M101.74 2783.78c25.25,0 45.75,-20.46 45.75,-45.74 0,-25.23 -20.5,-45.7 -45.75,-45.7 -25.27,0 -45.75,20.47 -45.75,45.7 0,25.28 20.48,45.74 45.75,45.74z"></path> <path id="Path_40" class="fil1" d="M101.74 2783.78c25.25,0 45.75,-20.46 45.75,-45.74 0,-25.23 -20.5,-45.7 -45.75,-45.7 -25.27,0 -45.75,20.47 -45.75,45.7 0,25.28 20.48,45.74 45.75,45.74z"></path> <path id="Path_41" class="fil0" d="M663.49 2783.74c25.28,0 45.75,-20.48 45.75,-45.73 0,-25.23 -20.47,-45.72 -45.75,-45.72 -25.25,0 -45.74,20.49 -45.74,45.72 0,25.25 20.49,45.73 45.74,45.73z"></path> <path id="Path_42" class="fil1" d="M663.49 2783.74c25.28,0 45.75,-20.48 45.75,-45.73 0,-25.23 -20.47,-45.72 -45.75,-45.72 -25.25,0 -45.74,20.49 -45.74,45.72 0,25.25 20.49,45.73 45.74,45.73z"></path> <path id="Path_43" class="fil0" d="M1225.43 2783.74c25.27,0 45.75,-20.48 45.75,-45.73 0,-25.23 -20.48,-45.72 -45.75,-45.72 -25.27,0 -45.75,20.49 -45.75,45.72 0,25.25 20.48,45.73 45.75,45.73z"></path> <path id="Path_44" class="fil1" d="M1225.43 2783.74c25.27,0 45.75,-20.48 45.75,-45.73 0,-25.23 -20.48,-45.72 -45.75,-45.72 -25.27,0 -45.75,20.49 -45.75,45.72 0,25.25 20.48,45.73 45.75,45.73z"></path> <path id="Path_45" class="fil0" d="M1787.18 2783.74c25.28,0 45.76,-20.48 45.76,-45.73 0,-25.23 -20.48,-45.72 -45.76,-45.72 -25.26,0 -45.75,20.49 -45.75,45.72 0,25.25 20.49,45.73 45.75,45.73z"></path> <path id="Path_46" class="fil1" d="M1787.18 2783.74c25.28,0 45.76,-20.48 45.76,-45.73 0,-25.23 -20.48,-45.72 -45.76,-45.72 -25.26,0 -45.75,20.49 -45.75,45.72 0,25.25 20.49,45.73 45.75,45.73z"></path> <path id="Path_47" class="fil0" d="M2349.48 2783.74c25.25,0 45.72,-20.48 45.72,-45.73 0,-25.23 -20.47,-45.72 -45.72,-45.72 -25.28,0 -45.75,20.49 -45.75,45.72 0,25.25 20.47,45.73 45.75,45.73z"></path> <path id="Path_48" class="fil1" d="M2349.48 2783.74c25.25,0 45.72,-20.48 45.72,-45.73 0,-25.23 -20.47,-45.72 -45.72,-45.72 -25.28,0 -45.75,20.49 -45.75,45.72 0,25.25 20.47,45.73 45.75,45.73z"></path> </g> </g> </g> </g> </svg> 